<svg width="256" height="256" viewBox="0 0 256 256" fill="none" xmlns="http://www.w3.org/2000/svg">
<path d="M0 24C0 10.7452 10.7452 0 24 0H232C245.255 0 256 10.7452 256 24V232C256 245.255 245.255 256 232 256H24C10.7452 256 0 245.255 0 232V24Z" fill="#8E51FF"/>
<path d="M64 94H176C184.837 94 192 101.163 192 110V126C192 134.837 184.837 142 176 142H64V94Z" fill="white"/>
<path d="M64 150H176C184.837 150 192 157.163 192 166V182C192 190.837 184.837 198 176 198H80C71.1634 198 64 190.837 64 182V150Z" fill="white"/>
<path d="M128 52C146.778 52 162 67.2223 162 86H150C150 73.8497 140.15 64 128 64C115.85 64 106 73.8497 106 86H94C94 67.2223 109.222 52 128 52Z" fill="white"/>
</svg>
