<svg width="256" height="256" viewBox="0 0 256 256" fill="none" xmlns="http://www.w3.org/2000/svg">
<rect width="256" height="256" rx="64" fill="#8E51FF"/>
<path d="M64 88H176C184.837 88 192 95.1634 192 104V120C192 128.837 184.837 136 176 136H64V88Z" fill="white"/>
<path d="M64 144H176C184.837 144 192 151.163 192 160V176C192 184.837 184.837 192 176 192H80C71.1634 192 64 184.837 64 176V144Z" fill="white"/>
<path d="M128 46C146.778 46 162 61.2223 162 80H150C150 67.8497 140.15 58 128 58C115.85 58 106 67.8497 106 80H94C94 61.2223 109.222 46 128 46Z" fill="white"/>
</svg>
